<?xml version="1.0" encoding="UTF-8" standalone="no"?>
<!DOCTYPE svg PUBLIC "-//W3C//DTD SVG 1.1//EN"
 "http://www.w3.org/Graphics/SVG/1.1/DTD/svg11.dtd">
<!-- Generated by graphviz version 2.40.1 (20161225.0304)
 -->
<!-- Title: snakemake_dag Pages: 1 -->
<svg width="116pt" height="764pt"
 viewBox="0.00 0.00 116.00 764.00" xmlns="http://www.w3.org/2000/svg" xmlns:xlink="http://www.w3.org/1999/xlink">
<g id="graph0" class="graph" transform="scale(1 1) rotate(0) translate(4 760)">
<title>snakemake_dag</title>
<polygon fill="#ffffff" stroke="transparent" points="-4,4 -4,-760 112,-760 112,4 -4,4"/>
<!-- 0 -->
<g id="node1" class="node">
<title>0</title>
<path fill="none" stroke="#56d8b9" stroke-width="2" stroke-dasharray="5,2" d="M69,-36C69,-36 39,-36 39,-36 33,-36 27,-30 27,-24 27,-24 27,-12 27,-12 27,-6 33,0 39,0 39,0 69,0 69,0 75,0 81,-6 81,-12 81,-12 81,-24 81,-24 81,-30 75,-36 69,-36"/>
<text text-anchor="middle" x="54" y="-15.5" font-family="sans" font-size="10.00" fill="#000000">all</text>
</g>
<!-- 1 -->
<g id="node2" class="node">
<title>1</title>
<path fill="none" stroke="#d85656" stroke-width="2" stroke-dasharray="5,2" d="M77.5,-108C77.5,-108 30.5,-108 30.5,-108 24.5,-108 18.5,-102 18.5,-96 18.5,-96 18.5,-84 18.5,-84 18.5,-78 24.5,-72 30.5,-72 30.5,-72 77.5,-72 77.5,-72 83.5,-72 89.5,-78 89.5,-84 89.5,-84 89.5,-96 89.5,-96 89.5,-102 83.5,-108 77.5,-108"/>
<text text-anchor="middle" x="54" y="-87.5" font-family="sans" font-size="10.00" fill="#000000">tab_format</text>
</g>
<!-- 1&#45;&gt;0 -->
<g id="edge1" class="edge">
<title>1&#45;&gt;0</title>
<path fill="none" stroke="#c0c0c0" stroke-width="2" d="M54,-71.8314C54,-64.131 54,-54.9743 54,-46.4166"/>
<polygon fill="#c0c0c0" stroke="#c0c0c0" stroke-width="2" points="57.5001,-46.4132 54,-36.4133 50.5001,-46.4133 57.5001,-46.4132"/>
</g>
<!-- 2 -->
<g id="node3" class="node">
<title>2</title>
<path fill="none" stroke="#56d86b" stroke-width="2" stroke-dasharray="5,2" d="M80.5,-180C80.5,-180 27.5,-180 27.5,-180 21.5,-180 15.5,-174 15.5,-168 15.5,-168 15.5,-156 15.5,-156 15.5,-150 21.5,-144 27.5,-144 27.5,-144 80.5,-144 80.5,-144 86.5,-144 92.5,-150 92.5,-156 92.5,-156 92.5,-168 92.5,-168 92.5,-174 86.5,-180 80.5,-180"/>
<text text-anchor="middle" x="54" y="-159.5" font-family="sans" font-size="10.00" fill="#000000">merge_clust</text>
</g>
<!-- 2&#45;&gt;1 -->
<g id="edge2" class="edge">
<title>2&#45;&gt;1</title>
<path fill="none" stroke="#c0c0c0" stroke-width="2" d="M54,-143.8314C54,-136.131 54,-126.9743 54,-118.4166"/>
<polygon fill="#c0c0c0" stroke="#c0c0c0" stroke-width="2" points="57.5001,-118.4132 54,-108.4133 50.5001,-118.4133 57.5001,-118.4132"/>
</g>
<!-- 3 -->
<g id="node4" class="node">
<title>3</title>
<path fill="none" stroke="#68d856" stroke-width="2" stroke-dasharray="5,2" d="M74.5,-252C74.5,-252 33.5,-252 33.5,-252 27.5,-252 21.5,-246 21.5,-240 21.5,-240 21.5,-228 21.5,-228 21.5,-222 27.5,-216 33.5,-216 33.5,-216 74.5,-216 74.5,-216 80.5,-216 86.5,-222 86.5,-228 86.5,-228 86.5,-240 86.5,-240 86.5,-246 80.5,-252 74.5,-252"/>
<text text-anchor="middle" x="54" y="-231.5" font-family="sans" font-size="10.00" fill="#000000">clustering</text>
</g>
<!-- 3&#45;&gt;2 -->
<g id="edge3" class="edge">
<title>3&#45;&gt;2</title>
<path fill="none" stroke="#c0c0c0" stroke-width="2" d="M54,-215.8314C54,-208.131 54,-198.9743 54,-190.4166"/>
<polygon fill="#c0c0c0" stroke="#c0c0c0" stroke-width="2" points="57.5001,-190.4132 54,-180.4133 50.5001,-190.4133 57.5001,-190.4132"/>
</g>
<!-- 4 -->
<g id="node5" class="node">
<title>4</title>
<path fill="none" stroke="#56d0d8" stroke-width="2" stroke-dasharray="5,2" d="M70,-324C70,-324 38,-324 38,-324 32,-324 26,-318 26,-312 26,-312 26,-300 26,-300 26,-294 32,-288 38,-288 38,-288 70,-288 70,-288 76,-288 82,-294 82,-300 82,-300 82,-312 82,-312 82,-318 76,-324 70,-324"/>
<text text-anchor="middle" x="54" y="-303.5" font-family="sans" font-size="10.00" fill="#000000">basicfilt</text>
</g>
<!-- 4&#45;&gt;3 -->
<g id="edge4" class="edge">
<title>4&#45;&gt;3</title>
<path fill="none" stroke="#c0c0c0" stroke-width="2" d="M54,-287.8314C54,-280.131 54,-270.9743 54,-262.4166"/>
<polygon fill="#c0c0c0" stroke="#c0c0c0" stroke-width="2" points="57.5001,-262.4132 54,-252.4133 50.5001,-262.4133 57.5001,-262.4132"/>
</g>
<!-- 5 -->
<g id="node6" class="node">
<title>5</title>
<path fill="none" stroke="#d8a456" stroke-width="2" stroke-dasharray="5,2" d="M84,-396C84,-396 24,-396 24,-396 18,-396 12,-390 12,-384 12,-384 12,-372 12,-372 12,-366 18,-360 24,-360 24,-360 84,-360 84,-360 90,-360 96,-366 96,-372 96,-372 96,-384 96,-384 96,-390 90,-396 84,-396"/>
<text text-anchor="middle" x="54" y="-375.5" font-family="sans" font-size="10.00" fill="#000000">merge_derepl</text>
</g>
<!-- 5&#45;&gt;4 -->
<g id="edge5" class="edge">
<title>5&#45;&gt;4</title>
<path fill="none" stroke="#c0c0c0" stroke-width="2" d="M54,-359.8314C54,-352.131 54,-342.9743 54,-334.4166"/>
<polygon fill="#c0c0c0" stroke="#c0c0c0" stroke-width="2" points="57.5001,-334.4132 54,-324.4133 50.5001,-334.4133 57.5001,-334.4132"/>
</g>
<!-- 6 -->
<g id="node7" class="node">
<title>6</title>
<path fill="none" stroke="#56d892" stroke-width="2" stroke-dasharray="5,2" d="M76,-468C76,-468 32,-468 32,-468 26,-468 20,-462 20,-456 20,-456 20,-444 20,-444 20,-438 26,-432 32,-432 32,-432 76,-432 76,-432 82,-432 88,-438 88,-444 88,-444 88,-456 88,-456 88,-462 82,-468 76,-468"/>
<text text-anchor="middle" x="54" y="-447.5" font-family="sans" font-size="10.00" fill="#000000">split_fasta</text>
</g>
<!-- 6&#45;&gt;5 -->
<g id="edge6" class="edge">
<title>6&#45;&gt;5</title>
<path fill="none" stroke="#c0c0c0" stroke-width="2" d="M54,-431.8314C54,-424.131 54,-414.9743 54,-406.4166"/>
<polygon fill="#c0c0c0" stroke="#c0c0c0" stroke-width="2" points="57.5001,-406.4132 54,-396.4133 50.5001,-406.4133 57.5001,-406.4132"/>
</g>
<!-- 7 -->
<g id="node8" class="node">
<title>7</title>
<path fill="none" stroke="#8fd856" stroke-width="2" stroke-dasharray="5,2" d="M79.5,-540C79.5,-540 28.5,-540 28.5,-540 22.5,-540 16.5,-534 16.5,-528 16.5,-528 16.5,-516 16.5,-516 16.5,-510 22.5,-504 28.5,-504 28.5,-504 79.5,-504 79.5,-504 85.5,-504 91.5,-510 91.5,-516 91.5,-516 91.5,-528 91.5,-528 91.5,-534 85.5,-540 79.5,-540"/>
<text text-anchor="middle" x="54" y="-519.5" font-family="sans" font-size="10.00" fill="#000000">demultiplex</text>
</g>
<!-- 7&#45;&gt;6 -->
<g id="edge7" class="edge">
<title>7&#45;&gt;6</title>
<path fill="none" stroke="#c0c0c0" stroke-width="2" d="M54,-503.8314C54,-496.131 54,-486.9743 54,-478.4166"/>
<polygon fill="#c0c0c0" stroke="#c0c0c0" stroke-width="2" points="57.5001,-478.4132 54,-468.4133 50.5001,-478.4133 57.5001,-478.4132"/>
</g>
<!-- 8 -->
<g id="node9" class="node">
<title>8</title>
<path fill="none" stroke="#b6d856" stroke-width="2" stroke-dasharray="5,2" d="M69,-612C69,-612 39,-612 39,-612 33,-612 27,-606 27,-600 27,-600 27,-588 27,-588 27,-582 33,-576 39,-576 39,-576 69,-576 69,-576 75,-576 81,-582 81,-588 81,-588 81,-600 81,-600 81,-606 75,-612 69,-612"/>
<text text-anchor="middle" x="54" y="-591.5" font-family="sans" font-size="10.00" fill="#000000">alifilt</text>
</g>
<!-- 8&#45;&gt;7 -->
<g id="edge8" class="edge">
<title>8&#45;&gt;7</title>
<path fill="none" stroke="#c0c0c0" stroke-width="2" d="M54,-575.8314C54,-568.131 54,-558.9743 54,-550.4166"/>
<polygon fill="#c0c0c0" stroke="#c0c0c0" stroke-width="2" points="57.5001,-550.4132 54,-540.4133 50.5001,-550.4133 57.5001,-550.4132"/>
</g>
<!-- 9 -->
<g id="node10" class="node">
<title>9</title>
<path fill="none" stroke="#d8cb56" stroke-width="2" stroke-dasharray="5,2" d="M84,-684C84,-684 24,-684 24,-684 18,-684 12,-678 12,-672 12,-672 12,-660 12,-660 12,-654 18,-648 24,-648 24,-648 84,-648 84,-648 90,-648 96,-654 96,-660 96,-660 96,-672 96,-672 96,-678 90,-684 84,-684"/>
<text text-anchor="middle" x="54" y="-663.5" font-family="sans" font-size="10.00" fill="#000000">merge_paired</text>
</g>
<!-- 9&#45;&gt;8 -->
<g id="edge9" class="edge">
<title>9&#45;&gt;8</title>
<path fill="none" stroke="#c0c0c0" stroke-width="2" d="M54,-647.8314C54,-640.131 54,-630.9743 54,-622.4166"/>
<polygon fill="#c0c0c0" stroke="#c0c0c0" stroke-width="2" points="57.5001,-622.4132 54,-612.4133 50.5001,-622.4133 57.5001,-622.4132"/>
</g>
<!-- 10 -->
<g id="node11" class="node">
<title>10</title>
<path fill="none" stroke="#567bd8" stroke-width="2" stroke-dasharray="5,2" d="M96,-756C96,-756 12,-756 12,-756 6,-756 0,-750 0,-744 0,-744 0,-732 0,-732 0,-726 6,-720 12,-720 12,-720 96,-720 96,-720 102,-720 108,-726 108,-732 108,-732 108,-744 108,-744 108,-750 102,-756 96,-756"/>
<text text-anchor="middle" x="54" y="-741" font-family="sans" font-size="10.00" fill="#000000">split_fastq</text>
<text text-anchor="middle" x="54" y="-730" font-family="sans" font-size="10.00" fill="#000000">run: DRYER_natura</text>
</g>
<!-- 10&#45;&gt;9 -->
<g id="edge10" class="edge">
<title>10&#45;&gt;9</title>
<path fill="none" stroke="#c0c0c0" stroke-width="2" d="M54,-719.8314C54,-712.131 54,-702.9743 54,-694.4166"/>
<polygon fill="#c0c0c0" stroke="#c0c0c0" stroke-width="2" points="57.5001,-694.4132 54,-684.4133 50.5001,-694.4133 57.5001,-694.4132"/>
</g>
</g>
</svg>
